<?xml version="1.0" encoding="utf-8"?>
<!-- Generator: Adobe Illustrator 19.0.0, SVG Export Plug-In . SVG Version: 6.00 Build 0)  -->
<svg version="1.1" id="Layer_1" xmlns="http://www.w3.org/2000/svg" xmlns:xlink="http://www.w3.org/1999/xlink" x="0px" y="0px"
	 viewBox="0 0 160 160" style="enable-background:new 0 0 160 160;" xml:space="preserve">
<style type="text/css">
	.st0{enable-background:new    ;}
	.st1{clip-path:url(#XMLID_29_);fill:none;stroke:#FFFFFF;stroke-width:2;stroke-miterlimit:10;}
	.st2{clip-path:url(#XMLID_30_);fill:none;stroke:#FFFFFF;stroke-width:2;stroke-miterlimit:10;}
	.st3{clip-path:url(#XMLID_31_);fill:none;stroke:#FFFFFF;stroke-width:2;stroke-miterlimit:10;}
	.st4{clip-path:url(#XMLID_32_);fill:none;stroke:#FFFFFF;stroke-width:2;stroke-miterlimit:10;}
	.st5{fill:#FFFFFF;}
	.st6{fill:none;stroke:#FFFFFF;stroke-width:2;stroke-miterlimit:10;}
	.st7{fill:none;stroke:#FFFFFF;stroke-miterlimit:10;}
</style>
<g id="XMLID_725_" class="st0">
	<g id="XMLID_787_" class="st0">
		<defs>
			<polygon id="XMLID_788_" class="st0" points="358.8,152.3 312.4,127 312.6,12.3 359,37.6 			"/>
		</defs>
		<clipPath id="XMLID_29_">
			<use xlink:href="#XMLID_788_"  style="overflow:visible;"/>
		</clipPath>
		<polygon id="XMLID_789_" class="st1" points="358.8,152.3 312.4,127 312.6,12.3 359,37.6 		"/>
		<use xlink:href="#XMLID_788_"  style="overflow:visible;fill:none;stroke:#FFFFFF;stroke-width:2;stroke-miterlimit:10;"/>
	</g>
	<g id="XMLID_784_" class="st0">
		<defs>
			<polygon id="XMLID_785_" class="st0" points="359,37.6 252.7,52.5 206.3,27.3 312.6,12.3 			"/>
		</defs>
		<clipPath id="XMLID_30_">
			<use xlink:href="#XMLID_785_"  style="overflow:visible;"/>
		</clipPath>
		<polygon id="XMLID_786_" class="st2" points="359,37.6 252.7,52.5 206.3,27.3 312.6,12.3 		"/>
		<use xlink:href="#XMLID_785_"  style="overflow:visible;fill:none;stroke:#FFFFFF;stroke-width:2;stroke-miterlimit:10;"/>
	</g>
	<g id="XMLID_729_" class="st0">
		<defs>
			<polygon id="XMLID_782_" class="st0" points="252.7,52.5 252.5,167.2 206.1,141.9 206.3,27.3 			"/>
		</defs>
		<clipPath id="XMLID_31_">
			<use xlink:href="#XMLID_782_"  style="overflow:visible;"/>
		</clipPath>
		<polygon id="XMLID_783_" class="st3" points="252.7,52.5 252.5,167.2 206.1,141.9 206.3,27.3 		"/>
		<use xlink:href="#XMLID_782_"  style="overflow:visible;fill:none;stroke:#FFFFFF;stroke-width:2;stroke-miterlimit:10;"/>
	</g>
	<g id="XMLID_726_" class="st0">
		<defs>
			<polygon id="XMLID_727_" class="st0" points="252.5,167.2 206.1,141.9 312.4,127 358.8,152.3 			"/>
		</defs>
		<clipPath id="XMLID_32_">
			<use xlink:href="#XMLID_727_"  style="overflow:visible;"/>
		</clipPath>
		<polygon id="XMLID_728_" class="st4" points="252.5,167.2 206.1,141.9 312.4,127 358.8,152.3 		"/>
		<use xlink:href="#XMLID_727_"  style="overflow:visible;fill:none;stroke:#FFFFFF;stroke-width:2;stroke-miterlimit:10;"/>
	</g>
</g>
<g id="XMLID_27_">
	<circle id="XMLID_819_" class="st5" cx="79.9" cy="79.4" r="7.2"/>
	<path id="XMLID_817_" class="st6" d="M145.3,56.3L16.7,107.7c-1.5,0.6-3.1-0.1-3.7-1.6l0,0c-0.6-1.5,0.1-3.1,1.6-3.7L143.2,51
		c1.5-0.6,3.1,0.1,3.7,1.6v0C147.5,54.1,146.7,55.7,145.3,56.3z"/>
	<circle id="XMLID_451_" class="st7" cx="80" cy="80" r="73.5"/>
</g>
</svg>
