<?xml version="1.0" encoding="utf-8"?>
<!-- Generator: Adobe Illustrator 19.0.0, SVG Export Plug-In . SVG Version: 6.00 Build 0)  -->
<svg version="1.1" id="Layer_1" xmlns="http://www.w3.org/2000/svg" xmlns:xlink="http://www.w3.org/1999/xlink" x="0px" y="0px"
	 viewBox="0 0 100 100" style="enable-background:new 0 0 100 100;" xml:space="preserve">
<style type="text/css">
	.st0{fill:none;stroke:#FFFFFF;stroke-width:2;stroke-linecap:round;stroke-linejoin:round;stroke-miterlimit:10;}
</style>
<g id="XMLID_926_">
	<path id="XMLID_929_" class="st0" d="M64.9,75C74.4,75,82,67.3,82,57.9s-7.6-17.1-17.1-17.1c-0.6,0-1.1,0-1.7,0.1
		c4.1-1.8,7.1-5.9,7.1-10.8c0-6.3-4.9-11.4-11.1-11.7c0.9-1.6,1.5-3.4,1.5-5.4c0-5.9-4.8-10.7-10.7-10.7S39.3,7.1,39.3,13
		c0,2,0.6,3.8,1.5,5.4c-6.2,0.3-11.1,5.4-11.1,11.7c0,4.8,2.9,8.9,7.1,10.8c-0.6-0.1-1.1-0.1-1.7-0.1c-9.4,0-17.1,7.7-17.1,17.1
		S25.6,75,35.1,75H64.9z"/>
	<line id="XMLID_823_" class="st0" x1="50" y1="75" x2="50" y2="94"/>
	<line id="XMLID_822_" class="st0" x1="47" y1="98" x2="53" y2="98"/>
</g>
</svg>
