<?xml version="1.0" encoding="utf-8"?>
<!-- Generator: Adobe Illustrator 19.0.0, SVG Export Plug-In . SVG Version: 6.00 Build 0)  -->
<svg version="1.1" id="Layer_1" xmlns="http://www.w3.org/2000/svg" xmlns:xlink="http://www.w3.org/1999/xlink" x="0px" y="0px"
	 viewBox="0 0 100 100" style="enable-background:new 0 0 100 100;" xml:space="preserve">
<style type="text/css">
	.st0{fill:none;stroke:#FFFFFF;stroke-width:2;stroke-linecap:round;stroke-linejoin:round;stroke-miterlimit:10;}
</style>
<g id="XMLID_789_">
	<path id="XMLID_812_" class="st0" d="M4,97.5V70.1c0,0,13.6-9.3,21.7-16.9c46.4,18,60.3,19,70.3,19c0,6.3,0,25.3,0,25.3
		S5,97.1,4,97.5z"/>
	<path id="XMLID_788_" class="st0" d="M78,70V40.5c0,0-19.5-8.9-24.6-12.7C38.5,38.2,14,42.6,14,42.6V63"/>
	<path id="XMLID_787_" class="st0" d="M26,38V13.1c0,0,19.1-4.1,33.6-10.6C65.2,6.6,70,8.8,70,8.8V36"/>
	<path id="XMLID_811_" class="st0" d="M4.7,78.5c0,0,12.9-9.3,21.1-16.9c46.4,18,60.8,19,69.7,19"/>
	<path id="XMLID_810_" class="st0" d="M4.7,86.9c0,0,12.9-9.3,21.1-16.9c46.4,18,60.8,19,69.7,19"/>
	<path id="XMLID_809_" class="st0" d="M4.7,95.4c0,0,12.9-9.3,21.1-16.9c46.4,18,60.8,19,69.7,19"/>
	<path id="XMLID_808_" class="st0" d="M13.5,97.1c4.1-3.2,8.4-6.6,12.2-10.2c11.3,4.4,20.7,7.7,28.5,10.3"/>
	<path id="XMLID_807_" class="st0" d="M78.5,48.9c0,0-20.3-8.9-25.3-12.7C38.3,46.7,13.1,51.1,13.1,51.1"/>
	<path id="XMLID_806_" class="st0" d="M78.5,57.4c0,0-20.3-8.9-25.3-12.7c-6.4,4.5-14.7,7.8-22.1,10.2"/>
	<path id="XMLID_805_" class="st0" d="M78.5,65.8c0,0-20.3-8.9-25.3-12.7c-3.2,2.2-6.8,4.2-10.6,5.8"/>
	<path id="XMLID_804_" class="st0" d="M25.8,21.5c0,0,19.3-4.1,33.8-10.6c5.6,4.1,10.6,6.3,10.6,6.3"/>
	<path id="XMLID_803_" class="st0" d="M25.8,29.9c0,0,19.3-4.1,33.8-10.6c5.6,4.1,10.6,6.3,10.6,6.3"/>
	<path id="XMLID_802_" class="st0" d="M70.1,34.2c0,0-4.9-2.3-10.6-6.3c0,0-2.1,1.8-3.5,1.7"/>
</g>
</svg>
