<?xml version="1.0" encoding="utf-8"?>
<!-- Generator: Adobe Illustrator 19.0.0, SVG Export Plug-In . SVG Version: 6.00 Build 0)  -->
<svg version="1.1" id="Layer_1" xmlns="http://www.w3.org/2000/svg" xmlns:xlink="http://www.w3.org/1999/xlink" x="0px" y="0px"
	 viewBox="0 0 100 100" style="enable-background:new 0 0 100 100;" xml:space="preserve">
<style type="text/css">
	.st0{fill:none;stroke:#FFFFFF;stroke-width:2;stroke-linecap:round;stroke-linejoin:round;stroke-miterlimit:10;}
</style>
<g id="XMLID_821_">
	<path id="XMLID_851_" class="st0" d="M75.9,17.7C68.9,22,69.7,22,50,22c-20.1,0-19,0-25.9-4.3c-1.3-0.8-4.3-4.3-4.3-4.3
		S14.9,30.6,50,30.6s30.2-17.2,30.2-17.2S77.2,16.9,75.9,17.7z"/>
	<path id="XMLID_850_" class="st0" d="M78,37.1c-6.9,4.3-8.3,4.3-28,4.3c-20.1,0-21.1,0-28-4.3c-1.3-0.8-4.3-4.3-4.3-4.3
		S14.9,50,50,50s32.3-17.2,32.3-17.2S79.3,36.3,78,37.1z"/>
	<path id="XMLID_849_" class="st0" d="M84.5,56.5c-6.9,4.3-14.8,4.3-34.5,4.3c-20.1,0-27.6,0-34.5-4.3c-1.3-0.8-4.3-4.3-4.3-4.3
		S14.9,69.4,50,69.4s38.8-17.2,38.8-17.2S85.8,55.7,84.5,56.5z"/>
	<circle id="XMLID_848_" class="st0" cx="76.9" cy="12.3" r="3.2"/>
	<circle id="XMLID_847_" class="st0" cx="23.1" cy="12.3" r="3.2"/>
	<path id="XMLID_820_" class="st0" d="M37,20v-6.6c10,0,12.5-10.8,12.5-10.8S54,13.4,62,13.4c0,2.2,0,6.6,0,6.6"/>
	<line id="XMLID_819_" class="st0" x1="37" y1="30" x2="37" y2="39"/>
	<line id="XMLID_818_" class="st0" x1="62" y1="30" x2="62" y2="39"/>
	<line id="XMLID_817_" class="st0" x1="37" y1="50" x2="37" y2="58"/>
	<line id="XMLID_816_" class="st0" x1="62" y1="50" x2="62" y2="58"/>
	<line id="XMLID_815_" class="st0" x1="37" y1="70" x2="37" y2="90"/>
	<line id="XMLID_814_" class="st0" x1="62" y1="70" x2="62" y2="90"/>
	<line id="XMLID_813_" class="st0" x1="46" y1="18" x2="46" y2="20"/>
	<line id="XMLID_795_" class="st0" x1="54" y1="18" x2="54" y2="20"/>
	<line id="XMLID_794_" class="st0" x1="46" y1="37" x2="46" y2="39"/>
	<line id="XMLID_793_" class="st0" x1="54" y1="37" x2="54" y2="39"/>
	<line id="XMLID_792_" class="st0" x1="46" y1="56" x2="46" y2="58"/>
	<line id="XMLID_791_" class="st0" x1="54" y1="56" x2="54" y2="58"/>
	<polyline id="XMLID_833_" class="st0" points="71.6,67 71.6,90.7 28.4,90.7 28.4,67 	"/>
	<line id="XMLID_790_" class="st0" x1="24" y1="98" x2="76" y2="98"/>
	<polyline id="XMLID_831_" class="st0" points="43.5,88.5 43.5,75.6 56.5,75.6 56.5,88.5 	"/>
	<path id="XMLID_830_" class="st0" d="M71.6,58.3v-0.3c0-3.7-2.4-7-5.9-8.2l-0.6-0.2"/>
	<path id="XMLID_829_" class="st0" d="M28.4,58.3v-0.3c0-3.7,2.4-7,5.9-8.2l0.6-0.2"/>
</g>
</svg>
