<?xml version="1.0" encoding="utf-8"?>
<!-- Generator: Adobe Illustrator 19.0.0, SVG Export Plug-In . SVG Version: 6.00 Build 0)  -->
<svg version="1.1" id="Layer_1" xmlns="http://www.w3.org/2000/svg" xmlns:xlink="http://www.w3.org/1999/xlink" x="0px" y="0px"
	 viewBox="0 0 100 100" style="enable-background:new 0 0 100 100;" xml:space="preserve">
<style type="text/css">
	.st0{fill:none;stroke:#FFFFFF;stroke-width:2;stroke-linecap:round;stroke-linejoin:round;stroke-miterlimit:10;}
</style>
<g id="XMLID_853_">
	<g id="XMLID_859_">
		<polyline id="XMLID_861_" class="st0" points="46,80 46,98 39,98 		"/>
		<polyline id="XMLID_860_" class="st0" points="52,76 52,98 59,98 		"/>
	</g>
	<path id="XMLID_858_" class="st0" d="M52.2,88.6c0,0,4.6-2.2,9.3-6.7"/>
	<path id="XMLID_855_" class="st0" d="M66.5,50.9c2.1-1.6,3.5-4.2,3.5-7.1c0-5-4-9-9-9c1.5-1.6,2.5-3.8,2.5-6.2c0-5-4-9-9-9
		c-2.1,0-4,0.7-5.5,1.9c-0.3-0.4-0.6-0.8-1-1.2c4.9,0,9-4.1,9-9c0-5-4-9-9-9c-5,0-9,4-9,9c0,2.4,0.9,4.5,2.5,6.2c-4.9,0-9,4.1-9,9
		c0,4.3,3,7.8,7,8.8c-0.1,0.2-0.3,0.4-0.4,0.6c-1.2-0.6-2.6-1-4.1-1c-5,0-9,4-9,9c0,3.2,1.7,6,4.3,7.6c-2.5,2.9-4.1,6.7-4.1,10.8
		c0,9,7.3,16.4,16.4,16.4c5.8,0,10.9-3.1,13.8-7.7c2.1,0.7,4.7,0.8,6.8,0.8C69.2,71.7,74,67,74,61C74,56.3,70.8,52.3,66.5,50.9z
		 M55.8,51.1c0.5,0.4,1.1,0.7,1.7,0.9c-0.3,0.2-0.5,0.4-0.7,0.5c-0.3-0.5-0.7-0.9-1.1-1.3C55.7,51.2,55.8,51.2,55.8,51.1z"/>
	<path id="XMLID_854_" class="st0" d="M42.9,69.2c-4.4,0-7.9-3.6-7.9-7.9"/>
</g>
</svg>
