<?xml version="1.0" encoding="utf-8"?>
<!-- Generator: Adobe Illustrator 19.0.0, SVG Export Plug-In . SVG Version: 6.00 Build 0)  -->
<svg version="1.1" id="Layer_1" xmlns="http://www.w3.org/2000/svg" xmlns:xlink="http://www.w3.org/1999/xlink" x="0px" y="0px"
	 viewBox="0 0 100 100" style="enable-background:new 0 0 100 100;" xml:space="preserve">
<style type="text/css">
	.st0{fill:none;stroke:#FFFFFF;stroke-width:2;stroke-linecap:round;stroke-linejoin:round;stroke-miterlimit:10;}
</style>
<g id="XMLID_785_">
	<polyline id="XMLID_784_" class="st0" points="40,98 40,24.2 56.7,2.8 82,9.2 82,42 	"/>
	<polyline id="XMLID_783_" class="st0" points="10,98 10,52 23,37.1 40.1,40 	"/>
	<path id="XMLID_801_" class="st0" d="M59.5,95.9c0,0-20.7-19.5-19.3-61"/>
	<path id="XMLID_800_" class="st0" d="M10.2,54.2c0,0,2.5,29.1,12.9,42.9"/>
	<line id="XMLID_782_" class="st0" x1="17" y1="46" x2="17" y2="84"/>
	<line id="XMLID_780_" class="st0" x1="23" y1="37" x2="23" y2="98"/>
	<line id="XMLID_779_" class="st0" x1="54" y1="8" x2="54" y2="86"/>
	<line id="XMLID_740_" class="st0" x1="46" y1="18" x2="46" y2="75"/>
	<line id="XMLID_739_" class="st0" x1="59" y1="4" x2="59" y2="96"/>
	<line id="XMLID_738_" class="st0" x1="4" y1="98" x2="95" y2="98"/>
	<path id="XMLID_799_" class="st0" d="M96,66.1c0-0.4-0.1-0.7-0.1-1.1c0.1-0.4,0.1-0.7,0.1-1.1c0-2.4-1.1-4.5-2.9-5.9
		c0.5-0.8,0.8-1.7,0.8-2.7c0-2.3-1.5-4.3-3.5-5c0.8-0.9,1.4-2.2,1.4-3.6c0-3-2.4-5.4-5.4-5.4c-3,0-5.4,2.4-5.4,5.4
		c0,2.3,1.5,4.3,3.5,5c-0.1,0.1-0.2,0.2-0.3,0.4c-1-1.3-2.5-2.2-4.3-2.2c-3,0-5.4,2.4-5.4,5.4c0,1.5,0.7,2.9,1.7,3.9
		c-1,1.3-1.7,2.9-1.7,4.7c0,1.6,0.5,3.1,1.4,4.4c-2.1,1.3-3.6,3.7-3.6,6.4c0,4.1,3.4,7.5,7.5,7.5c1,0,2-0.2,2.8-0.6
		c1.4,1.6,3.4,2.7,5.7,2.7c4.1,0,7.5-3.4,7.5-7.5c0-2.1-0.9-4-2.3-5.4C95.1,70.1,96,68.2,96,66.1z"/>
	<line id="XMLID_737_" class="st0" x1="86" y1="84" x2="86" y2="98"/>
	<path id="XMLID_797_" class="st0" d="M81,69.3c0,0-1.3,3.4,2.1,4.3"/>
	<path id="XMLID_796_" class="st0" d="M85.3,60.7c0,0,1.1,0.3,2.1,2.1"/>
</g>
</svg>
