<?xml version="1.0" encoding="utf-8"?>
<!-- Generator: Adobe Illustrator 19.0.0, SVG Export Plug-In . SVG Version: 6.00 Build 0)  -->
<svg version="1.1" id="Layer_1" xmlns="http://www.w3.org/2000/svg" xmlns:xlink="http://www.w3.org/1999/xlink" x="0px" y="0px"
	 viewBox="0 0 100 100" style="enable-background:new 0 0 100 100;" xml:space="preserve">
<style type="text/css">
	.st0{fill:none;stroke:#FFFFFF;stroke-width:2;stroke-linecap:round;stroke-linejoin:round;stroke-miterlimit:10;}
</style>
<g id="XMLID_862_">
	<g id="XMLID_865_">
		<g id="XMLID_869_">
			<polyline id="XMLID_871_" class="st0" points="45,77 45,98 38,98 			"/>
			<polyline id="XMLID_870_" class="st0" points="53,75 53,98 59,98 			"/>
		</g>
		<path id="XMLID_868_" class="st0" d="M52.8,89c0,0,4.4-2.1,8.8-6.4"/>
		<path id="XMLID_867_" class="st0" d="M71.6,44c2.1-2.6,3.4-6,3.4-9.6c0-7.4-5.2-13.5-12.2-14.9c0.2-0.9,0.3-1.8,0.3-2.8
			c0-8-6-14.5-13.3-14.5S36.5,8.7,36.5,16.7c0,0.9,0.1,1.8,0.2,2.7c-7.2,1.2-12.6,7.4-12.6,15c0,3.5,1.2,6.8,3.2,9.4
			c-4.5,3.3-7.4,8.6-7.4,14.5c0,10,8.1,18.1,18,18.1c4.3,0,8.3-1.5,11.4-4.1c3.1,2.5,7,4.1,11.4,4.1c9.9,0,18-8.1,18-18.1
			C78.6,52.5,75.9,47.3,71.6,44z"/>
		<path id="XMLID_866_" class="st0" d="M39.3,68.4c-5.7,0-10.3-4.6-10.3-10.3"/>
	</g>
	<g id="XMLID_863_">
		<circle id="XMLID_864_" class="st0" cx="57.9" cy="31.3" r="1.7"/>
	</g>
</g>
</svg>
