<?xml version="1.0" encoding="utf-8"?>
<!-- Generator: Adobe Illustrator 19.0.0, SVG Export Plug-In . SVG Version: 6.00 Build 0)  -->
<svg version="1.1" id="Layer_1" xmlns="http://www.w3.org/2000/svg" xmlns:xlink="http://www.w3.org/1999/xlink" x="0px" y="0px"
	 viewBox="0 0 100 100" style="enable-background:new 0 0 100 100;" xml:space="preserve">
<style type="text/css">
	.st0{fill:none;stroke:#FFFFFF;stroke-width:2;stroke-linecap:round;stroke-miterlimit:10;}
	.st1{fill:none;stroke:#F8F7F8;stroke-width:2;stroke-linecap:round;stroke-linejoin:round;}
</style>
<g id="XMLID_420_">
	<path id="XMLID_777_" class="st0" d="M159.2-8.8c-8.9-8.9-8.9-23.2,0-32.1"/>
	<path id="XMLID_776_" class="st0" d="M191.2-40.9c8.9,8.9,8.9,23.2,0,32.1"/>
	<path id="XMLID_775_" class="st0" d="M151-0.7c-13.4-13.4-13.4-35,0-48.4"/>
	<path id="XMLID_682_" class="st0" d="M199.4-49c13.4,13.4,13.4,35,0,48.4"/>
	<circle id="XMLID_465_" class="st0" cx="175.2" cy="-24.8" r="10.5"/>
	<path id="XMLID_463_" class="st0" d="M208.1-56.5c17.5,17.5,17.5,45.8,0,63.3"/>
	<path id="XMLID_462_" class="st0" d="M142.3,6.8c-17.5-17.5-17.5-45.8,0-63.3"/>
</g>
<g id="XMLID_452_">
	<path id="XMLID_442_" class="st1" d="M126.9,50c15.3-25.4,48.3-33.6,73.7-18.3c7.5,4.5,13.8,10.8,18.3,18.3"/>
	<path id="XMLID_409_" class="st1" d="M126.9,50c15.3,25.4,48.3,33.6,73.7,18.3c7.5-4.5,13.8-10.8,18.3-18.3"/>
	<ellipse id="XMLID_403_" class="st1" cx="172.9" cy="50" rx="13.9" ry="13.6"/>
</g>
<g id="XMLID_27_">
	<line id="XMLID_798_" class="st0" x1="50" y1="6.3" x2="50" y2="16.7"/>
	<line id="XMLID_781_" class="st0" x1="50" y1="83.3" x2="50" y2="93.7"/>
	<polyline id="XMLID_778_" class="st0" points="37.5,39.6 50,52.1 70.8,31.3 	"/>
	<circle id="XMLID_30_" class="st0" cx="50" cy="50" r="44.8"/>
	<line id="XMLID_29_" class="st0" x1="93.7" y1="50" x2="83.3" y2="50"/>
	<line id="XMLID_28_" class="st0" x1="16.7" y1="50" x2="6.3" y2="50"/>
</g>
</svg>
