<?xml version="1.0" encoding="utf-8"?>
<!-- Generator: Adobe Illustrator 19.0.0, SVG Export Plug-In . SVG Version: 6.00 Build 0)  -->
<svg version="1.1" id="Layer_1" xmlns="http://www.w3.org/2000/svg" xmlns:xlink="http://www.w3.org/1999/xlink" x="0px" y="0px"
	 viewBox="0 0 40 25" style="enable-background:new 0 0 40 25;" xml:space="preserve">
<style type="text/css">
	.st0{fill:#FFFFFF;}
</style>
<g id="XMLID_874_">
	<path id="XMLID_875_" class="st0" d="M38.8,1.2c-0.1-0.1-0.3-0.2-0.5-0.2L26.7,2.6c-0.1-0.1-0.2-0.1-0.3-0.1h0
		c-0.1,0-0.2,0-0.2,0.1L14.9,1.1c-0.2,0-0.4,0-0.5,0.2c-0.1,0.1-0.2,0.3-0.2,0.5v3.1c0,0.2,0.1,0.4,0.2,0.5c0.1,0.1,0.3,0.2,0.4,0.2
		l0.1,0l10.1-1.3l-0.8,1H24c-2.4,0-4.5,1.5-5.4,3.5l0,0L6.3,12l-1-4.8C5.3,7,5.2,6.8,5,6.7C4.9,6.6,4.7,6.6,4.5,6.6L2,7.2
		C1.8,7.3,1.6,7.5,1.5,7.7c-0.1,0.2,0,0.4,0.1,0.6l3.3,4.5l-3.7,3.1C1.1,16,1,16.2,1,16.4c0,0.2,0,0.4,0.2,0.5l1.7,1.9
		C3,18.9,3.2,19,3.4,19l0.1,0c0.2,0,0.4-0.2,0.5-0.4l2.3-5l12.3,2.9l0,0c0.9,2.1,3,3.5,5.4,3.5h1.8c-0.6,0.9-2.7,2.6-9.2,2.6
		c-0.4,0-0.7,0.3-0.7,0.7c0,0.4,0.3,0.7,0.7,0.7H36c0.4,0,0.6-0.3,0.7-0.6c0-0.4-0.3-0.7-0.6-0.7c-3.4-0.2-8.1-1.1-8.6-2.6h1.8
		c3.2,0,5.9-2.6,5.9-5.9V11c0-3.2-2.6-5.9-5.9-5.9h-0.5l-0.8-1l10.4,1.4l0.1,0c0.2,0,0.3-0.1,0.4-0.2C38.9,5.2,39,5,39,4.8V1.7
		C39,1.5,38.9,1.4,38.8,1.2z M3.3,8.3l0.9-0.2l0.4,2L3.3,8.3z M28.8,22.6h-4.3c1-0.5,1.7-1,2.1-1.5C27,21.8,27.9,22.2,28.8,22.6z
		 M15.5,4.1V2.5l6.1,0.8L15.5,4.1z M3.2,17.1l-0.6-0.7l1.5-1.3L3.2,17.1z M8.4,12.8l9.7-2.6c0,0.3-0.1,0.6-0.1,0.9v3.1
		c0,0.3,0,0.6,0.1,0.9L8.4,12.8z M29.2,18.7H24c-2.5,0-4.6-2.1-4.6-4.6V11c0-2.5,2.1-4.6,4.6-4.6h2v5.2c0,0.4-0.2,2.6,1.1,4.1
		c0.7,0.8,1.7,1.2,3,1.2h2.8C32,18,30.7,18.7,29.2,18.7z M33.8,11v3.1c0,0.5-0.1,1-0.3,1.5H30c-0.9,0-1.5-0.2-2-0.8
		c-1-1.1-0.8-3.1-0.8-3.1l0-5.3h2C31.7,6.5,33.8,8.5,33.8,11z M25.8,5.2l0.6-0.8L27,5.2H25.8z M37.7,4.1l-6.1-0.8l6.1-0.8V4.1z"/>
</g>
</svg>
