<?xml version="1.0" encoding="utf-8"?>
<!-- Generator: Adobe Illustrator 19.0.0, SVG Export Plug-In . SVG Version: 6.00 Build 0)  -->
<svg version="1.1" id="Layer_1" xmlns="http://www.w3.org/2000/svg" xmlns:xlink="http://www.w3.org/1999/xlink" x="0px" y="0px"
	 viewBox="0 0 100 100" style="enable-background:new 0 0 100 100;" xml:space="preserve">
<style type="text/css">
	.st0{fill:none;stroke:#FFFFFF;stroke-width:2;stroke-linecap:round;stroke-linejoin:round;stroke-miterlimit:10;}
</style>
<g id="XMLID_872_">
	<g id="XMLID_843_">
		<path id="XMLID_846_" class="st0" d="M65.1,76c9.5,0,17.3-7.9,17.3-17.4s-7.7-17.4-17.3-17.4c-0.6,0-1.2,0-1.7,0
			c4.2-1.8,7.1-6,7.1-10.9c0-6.3-5-11.5-11.2-11.9c0.9-1.6,1.5-3.4,1.5-5.4c0-6-4.8-10.8-10.8-10.8S39.2,7.1,39.2,13
			c0,2,0.6,3.8,1.5,5.4c-6.3,0.3-11.2,5.5-11.2,11.8c0,4.9,2.9,9.1,7.1,10.9c-0.6-0.1-1.1-0.1-1.7-0.1c-9.5,0-17.3,7.9-17.3,17.4
			S25.3,76,34.9,76H65.1z"/>
		<line id="XMLID_845_" class="st0" x1="50" y1="24" x2="50" y2="95"/>
		<line id="XMLID_844_" class="st0" x1="46" y1="98" x2="54" y2="98"/>
	</g>
	<polyline id="XMLID_842_" class="st0" points="39.2,54.1 50,62.7 60.8,54.1 	"/>
	<polyline id="XMLID_841_" class="st0" points="44.6,30.9 50,34.1 55.4,30.9 	"/>
</g>
</svg>
